<?xml version="1.0" encoding="UTF-8"?>
<svg xmlns="http://www.w3.org/2000/svg" xmlns:xlink="http://www.w3.org/1999/xlink" width="48pt" height="48pt" viewBox="0 0 48 48" version="1.1">
<g id="surface1">
<path style=" stroke:none;fill-rule:nonzero;fill:rgb(0%,0%,0%);fill-opacity:1;" d="M 40 18 C 40 15.800781 38.199219 14 36 14 L 29.601563 14 C 28.800781 14 28.398438 13.199219 28.800781 12.601563 C 29.398438 11.398438 30 10 30 9 C 30 6.199219 27.800781 4 25 4 C 22.199219 4 20 6.199219 20 9 C 20 10 20.601563 11.398438 21.199219 12.601563 C 21.601563 13.199219 21 14 20.398438 14 L 12 14 C 9.800781 14 8 15.800781 8 18 L 8 22.800781 C 8 24 9.199219 25 10.398438 24.601563 C 11.398438 24.199219 12.398438 24 13 24 C 15.800781 24 18 26.199219 18 29 C 18 31.800781 15.800781 34 13 34 C 12.398438 34 11.398438 33.800781 10.398438 33.398438 C 9.199219 33.199219 8 34 8 35.199219 L 8 40 C 8 42.199219 9.800781 44 12 44 L 36 44 C 38.199219 44 40 42.199219 40 40 Z "/>
</g>
</svg>
